<svg width="58" height="62" viewBox="0 0 58 62" fill="none" xmlns="http://www.w3.org/2000/svg">
<path fill-rule="evenodd" clip-rule="evenodd" d="M10.9747 19.4047C11.8926 19.1829 12.8308 19.0712 13.7719 19.0718C21.2248 19.0718 27.2649 25.9745 27.2649 34.4859C27.2649 42.9999 21.2248 49.9026 13.7719 49.9026C6.31901 49.9026 0.276611 43.0024 0.276611 34.4859C0.276611 34.2368 0.281377 33.9852 0.29329 33.7362H0.276611C0.276611 20.8889 9.42598 10.4358 20.6721 10.4358V15.6103C17.0242 15.6103 13.6599 17.0284 10.9747 19.4047ZM41.1724 19.4047C42.073 19.1861 43.007 19.0718 43.9648 19.0718C51.4178 19.0718 57.4601 25.9745 57.4601 34.4859C57.4601 42.9999 51.4178 49.9026 43.9648 49.9026C36.5119 49.9026 30.4719 43.0024 30.4719 34.4859C30.4719 34.2368 30.4767 33.9852 30.4886 33.7362H30.4719C30.4719 20.8889 39.6213 10.4358 50.8674 10.4358V15.6103C47.2171 15.6103 43.8576 17.0284 41.1724 19.4047Z" fill="#8A1538"/>
</svg>
